<svg xmlns="http://www.w3.org/2000/svg" xmlns:xlink="http://www.w3.org/1999/xlink" viewBox="0 0 764.48 254.89"><defs><style>.cls-1,.cls-4,.cls-8{fill:#07319a;}.cls-2{clip-path:url(#clip-path);}.cls-3{fill:#75eff2;stroke:#07319a;stroke-miterlimit:10;stroke-width:1.94px;}.cls-4{font-size:104.18px;font-family:Quicksand-SemiBold, Quicksand;font-weight:600;}.cls-5{letter-spacing:0.01em;}.cls-6{letter-spacing:0em;}.cls-7{letter-spacing:0em;}.cls-8{font-size:37.75px;font-family:Quicksand-Regular, Quicksand;}.cls-9{letter-spacing:-0.01em;}</style><clipPath id="clip-path"><circle class="cls-1" cx="124.74" cy="124.74" r="124.74"/></clipPath></defs><g id="Layer_2" data-name="Layer 2"><g id="guides"><circle class="cls-1" cx="124.74" cy="124.74" r="124.74"/><g class="cls-2"><ellipse class="cls-3" cx="88.67" cy="24.82" rx="3.58" ry="1.68" transform="translate(22.84 89.2) rotate(-60)"/><path class="cls-3" d="M84.2,33.53c.94.54,2.32-.1,3.09-1.44s.64-2.85-.3-3.39-2.32.1-3.09,1.43S83.26,33,84.2,33.53Z"/><ellipse class="cls-3" cx="82.38" cy="37.12" rx="2.99" ry="2.27" transform="translate(9.04 89.9) rotate(-60)"/><path class="cls-3" d="M77.86,45.42c1,.56,2.37-.09,3.15-1.43s.63-2.89-.33-3.45-2.36.09-3.14,1.44S76.9,44.87,77.86,45.42Z"/><path class="cls-3" d="M74.22,50.73c1,.55,2.37-.09,3.14-1.44S78,46.4,77,45.84s-2.37.09-3.15,1.44S73.26,50.17,74.22,50.73Z"/><path class="cls-3" d="M70.68,56.36c1,.6,2.58-.1,3.43-1.57s.68-3.14-.36-3.74-2.58.09-3.43,1.56S69.64,55.76,70.68,56.36Z"/><path class="cls-3" d="M63,65.54c1,.56,2.37-.09,3.15-1.43s.63-2.89-.33-3.45-2.37.09-3.15,1.44S62,65,63,65.54Z"/><path class="cls-3" d="M61.42,68.66c1-1.23,1-2.78.17-3.46s-2.36-.24-3.32,1-1,2.77-.16,3.46S60.46,69.88,61.42,68.66Z"/><path class="cls-3" d="M56.46,72.57a2.34,2.34,0,1,0-3.61.15A2.57,2.57,0,0,0,56.46,72.57Z"/><path class="cls-3" d="M49,76.48c1,.55,2.37-.09,3.15-1.44s.63-2.89-.33-3.45-2.37.09-3.15,1.44S48,75.92,49,76.48Z"/><path class="cls-3" d="M160.53,27.92c.81-.47.66-2.23-.33-3.94s-2.44-2.72-3.25-2.26-.65,2.23.34,3.94S159.73,28.38,160.53,27.92Z"/><path class="cls-3" d="M160.13,32.09c.77,1.34,2.15,2,3.09,1.44s1.07-2.06.3-3.4-2.16-2-3.09-1.43S159.35,30.76,160.13,32.09Z"/><path class="cls-3" d="M163.07,38.25c.83,1.43,2.38,2.08,3.46,1.46s1.3-2.3.47-3.73-2.37-2.08-3.46-1.45S162.25,36.82,163.07,38.25Z"/><path class="cls-3" d="M166.41,44c.77,1.34,2.18,2,3.14,1.43s1.11-2.09.33-3.44-2.19-2-3.15-1.44S165.63,42.64,166.41,44Z"/><path class="cls-3" d="M170.05,49.29c.78,1.35,2.19,2,3.15,1.44s1.11-2.1.33-3.45-2.19-2-3.15-1.44S169.27,47.94,170.05,49.29Z"/><path class="cls-3" d="M173.31,54.79c.85,1.47,2.38,2.17,3.43,1.57s1.2-2.28.35-3.75-2.38-2.17-3.42-1.56S172.46,53.33,173.31,54.79Z"/><path class="cls-3" d="M181.3,64.11c.78,1.34,2.19,2,3.14,1.43s1.11-2.09.33-3.44-2.18-2-3.14-1.44S180.52,62.76,181.3,64.11Z"/><path class="cls-3" d="M186,68.66c1,1.22,2.45,1.66,3.32,1s.8-2.23-.16-3.46-2.45-1.66-3.32-1S185,67.43,186,68.66Z"/><path class="cls-3" d="M191,72.57a2.34,2.34,0,1,0-.55-3.57A2.57,2.57,0,0,0,191,72.57Z"/><ellipse class="cls-3" cx="197" cy="74.03" rx="2.01" ry="2.82" transform="translate(-10.62 108.43) rotate(-30)"/><path class="cls-3" d="M45.34,80.37c1,.56,2.37-.09,3.14-1.44s.64-2.89-.32-3.44-2.37.09-3.15,1.44S44.38,79.82,45.34,80.37Z"/><path class="cls-3" d="M37.66,88.6c1,.56,2.37-.09,3.14-1.43a3.2,3.2,0,0,0,.4-2.49h0c1,.55,2.37-.09,3.15-1.44S45,80.35,44,79.8s-2.37.09-3.15,1.44a3.2,3.2,0,0,0-.39,2.48h0c-1-.55-2.37.09-3.15,1.44S36.7,88.05,37.66,88.6Z"/><path class="cls-3" d="M34,93c1,.56,2.37-.09,3.15-1.44s.63-2.89-.33-3.44-2.37.09-3.15,1.44S33.08,92.42,34,93Z"/><path class="cls-3" d="M28.22,103.06c1,.55,2.36-.09,3.14-1.44s.64-2.8-.26-3.39c1,.48,2.31-.16,3.07-1.48s.63-2.89-.32-3.44-2.37.09-3.15,1.44-.63,2.8.26,3.39c-1-.48-2.31.16-3.07,1.47S27.26,102.5,28.22,103.06Z"/><path class="cls-3" d="M24.79,108.93c1.15.66,2.79,0,3.67-1.55s.65-3.27-.5-3.94-2.79,0-3.66,1.54S23.65,108.26,24.79,108.93Z"/><path class="cls-3" d="M18.72,121.08c1.14.66,2.79-.07,3.68-1.62s.7-3.33-.44-4-2.79.07-3.68,1.61S17.58,120.42,18.72,121.08Z"/><path class="cls-3" d="M12.19,148.93c1.18.27,2.42-.76,2.78-2.29s-.3-3-1.46-3.26h.13c1.15,0,2.09-1.21,2.09-2.71S14.79,138,13.64,138s-2.09,1.22-2.09,2.72a2.64,2.64,0,0,0,1.66,2.65,2.71,2.71,0,0,0-2.52,2.33C10.33,147.19,11,148.66,12.19,148.93Z"/><path class="cls-3" d="M17.26,126.7a2.86,2.86,0,0,0,1.62-5.4,2.86,2.86,0,0,0-1.62,5.4Z"/><path class="cls-3" d="M11.53,155.21c1.16.08,2.18-1.18,2.29-2.81s-.75-3-1.91-3.08-2.18,1.18-2.29,2.81S10.37,155.14,11.53,155.21Z"/><path class="cls-3" d="M15.23,132.21A2.83,2.83,0,0,0,17.36,127a2.83,2.83,0,0,0-2.13,5.19Z"/><path class="cls-3" d="M13.81,137.86a2.92,2.92,0,0,0,1.66-5.51,2.92,2.92,0,0,0-1.66,5.51Z"/><path class="cls-3" d="M12.05,161.14c1.1.07,2.08-1.13,2.18-2.68s-.71-2.88-1.81-3-2.09,1.13-2.19,2.69S10.94,161.07,12.05,161.14Z"/><path class="cls-3" d="M13.55,173c.91-.11,1.5-1.45,1.31-3s-1.08-2.71-2-2.6-1.49,1.46-1.31,3S12.64,173.11,13.55,173Z"/><path class="cls-3" d="M14.87,178.5c.84-.1,1.36-1.43,1.18-3s-1-2.72-1.85-2.62-1.36,1.44-1.17,3S14,178.6,14.87,178.5Z"/><path class="cls-3" d="M17,183.65c.77-.27,1-1.57.52-2.91s-1.47-2.19-2.23-1.92-1,1.57-.52,2.91S16.2,183.92,17,183.65Z"/><path class="cls-3" d="M16.91,183.88c-.76.27-1,1.57-.52,2.9s1.48,2.19,2.24,1.92,1-1.57.52-2.9S17.68,183.61,16.91,183.88Z"/><path class="cls-3" d="M12.82,167c1.09-.13,1.82-1.49,1.64-3s-1.22-2.69-2.31-2.56-1.82,1.49-1.63,3S11.73,167.11,12.82,167Z"/><polygon class="cls-3" points="125.81 84.16 125.81 84.16 125.81 83.7 125.6 83.7 125.5 83.81 125.19 84.16 125.81 84.16"/><path class="cls-3" d="M224.16,113.86a2.92,2.92,0,0,0,3.68,1,3.32,3.32,0,0,0-3.28-5.67,2.81,2.81,0,0,0-1.17,3.12,158.59,158.59,0,0,0-12.61-21.22A65.47,65.47,0,0,0,191.91,73a57.78,57.78,0,0,1-13-11.62,2,2,0,0,0,2.14.3c1-.55,1.11-2.09.33-3.44s-2.19-2-3.15-1.44-1.08,2-.4,3.29c-12.65-15.41-20.39-35.41-20.39-35.41-3.83,50.27,61.75,61.75,64.62,125.42,0,45-31.35,86.26-59.59,82.91-24.73-9.16,7.2-41,12.12-92.33,0-.45.08-.9.12-1.35L127.56,86.14v48a10.29,10.29,0,1,1-3.23,0v-49l-49.45,55.4a.76.76,0,0,0,0,.15C79.81,192,111.74,223.84,87,233c-28.24,3.35-59.59-37.91-59.59-82.91C30.29,86.42,95.88,74.94,92.05,24.67c0,0-7.75,20-20.4,35.41.69-1.31.52-2.76-.4-3.29s-2.37.09-3.15,1.44-.63,2.89.33,3.44a2,2,0,0,0,2.14-.3A57.78,57.78,0,0,1,57.57,73,65.35,65.35,0,0,0,38.7,91.05a158.59,158.59,0,0,0-12.61,21.22,2.81,2.81,0,0,0-1.17-3.12,3.06,3.06,0,0,0-4,1.46,3,3,0,0,0,.75,4.21,2.92,2.92,0,0,0,3.68-1c-11.37,24-18.25,56.21,2,86.87A54.69,54.69,0,0,0,32,208.3h0c5.72,8.09,17.22,21.11,37,31.23l.12.06c14.06,7.19,32.29,12.89,55.58,14.32h.14l1-.06c73.84-4.93,96.31-53.12,96.31-53.12C242.42,170.07,235.52,137.83,224.16,113.86Z"/><path class="cls-3" d="M204.14,80.37c1-.55,1.11-2.09.33-3.44s-2.19-2-3.14-1.44-1.11,2.1-.33,3.44S203.18,80.93,204.14,80.37Z"/><path class="cls-3" d="M205.13,83.24c.78,1.35,2.19,2,3.15,1.44h0a3.2,3.2,0,0,0,.4,2.49c.77,1.34,2.18,2,3.14,1.43s1.11-2.09.33-3.44-2.19-2-3.15-1.44h0a3.2,3.2,0,0,0-.39-2.48c-.78-1.35-2.19-2-3.15-1.44S204.35,81.89,205.13,83.24Z"/><ellipse class="cls-3" cx="214.03" cy="90.53" rx="2.01" ry="2.82" transform="translate(-16.59 119.15) rotate(-30)"/><path class="cls-3" d="M215.31,96.75c.76,1.32,2.11,2,3.07,1.48-.89.59-1,2.08-.26,3.39s2.19,2,3.15,1.44,1.1-2.1.32-3.45-2.11-2-3.07-1.47c.9-.59,1-2.08.26-3.39s-2.18-2-3.14-1.44S214.53,95.4,215.31,96.75Z"/><path class="cls-3" d="M221,107.38c.87,1.52,2.51,2.21,3.66,1.55s1.37-2.43.49-4-2.51-2.2-3.66-1.54S220.15,105.87,221,107.38Z"/><path class="cls-3" d="M227.52,115.47c-1.13.66-1.33,2.45-.44,4s2.54,2.28,3.68,1.62,1.34-2.45.44-4S228.66,114.81,227.52,115.47Z"/><path class="cls-3" d="M237.93,140.67c0-1.5-.93-2.72-2.09-2.72s-2.09,1.22-2.09,2.72.94,2.71,2.09,2.71H236c-1.15.29-1.8,1.74-1.45,3.26s1.59,2.56,2.77,2.29,1.86-1.74,1.5-3.28a2.7,2.7,0,0,0-2.51-2.33A2.65,2.65,0,0,0,237.93,140.67Z"/><path class="cls-3" d="M230.6,121.3a2.86,2.86,0,1,0,3.08,2A2.61,2.61,0,0,0,230.6,121.3Z"/><path class="cls-3" d="M235.66,152.4c.11,1.63,1.13,2.89,2.29,2.81s2-1.45,1.91-3.08-1.13-2.88-2.29-2.81S235.55,150.78,235.66,152.4Z"/><path class="cls-3" d="M232.12,127a2.83,2.83,0,1,0,3.31,1.68A2.63,2.63,0,0,0,232.12,127Z"/><path class="cls-3" d="M234,132.35a2.92,2.92,0,1,0,3.13,2.06A2.67,2.67,0,0,0,234,132.35Z"/><path class="cls-3" d="M237.07,155.51c-1.11.07-1.92,1.39-1.82,3s1.08,2.75,2.18,2.68,1.92-1.39,1.82-2.94S238.17,155.44,237.07,155.51Z"/><path class="cls-3" d="M236.61,167.4c-.91-.11-1.8,1.06-2,2.6s.4,2.89,1.31,3,1.8-1.05,2-2.6S237.52,167.51,236.61,167.4Z"/><path class="cls-3" d="M235.28,172.9c-.83-.1-1.66,1.08-1.85,2.62s.34,2.88,1.18,3,1.66-1.07,1.84-2.61S236.11,173,235.28,172.9Z"/><path class="cls-3" d="M234.24,178.82c-.77-.27-1.77.59-2.24,1.92s-.24,2.64.52,2.91,1.76-.59,2.24-1.92S235,179.09,234.24,178.82Z"/><path class="cls-3" d="M232.57,183.88c-.76-.27-1.77.59-2.24,1.92s-.24,2.63.52,2.9,1.76-.59,2.24-1.92S233.33,184.15,232.57,183.88Z"/><path class="cls-3" d="M237.33,161.38c-1.09-.13-2.12,1-2.31,2.56s.55,2.91,1.64,3,2.12-1,2.31-2.56S238.42,161.51,237.33,161.38Z"/><path class="cls-3" d="M125.6,83.7,74.88,140.52q-.41-4.19-.55-8.54c1.71-18,4.35-46.17,50.34-48.29h.07Z"/><path class="cls-3" d="M175.15,132q-.12,3.74-.44,7.34l-48.9-55.16V83.7h.12l1.31,0C173.23,85.85,173.44,114,175.15,132Z"/></g><text class="cls-4" transform="translate(282.85 128.45)"><tspan class="cls-5">O</tspan><tspan class="cls-6" x="80.11" y="0">c</tspan><tspan class="cls-7" x="134.19" y="0">t</tspan><tspan x="173.88" y="0">opods</tspan></text><text class="cls-8" transform="translate(288.91 201.24)">THE B<tspan class="cls-9" x="106.31" y="0">L</tspan><tspan x="126.01" y="0">OCK FREELANCERS</tspan></text></g></g></svg>